<svg width="34" height="34" viewBox="0 0 34 34" fill="none" xmlns="http://www.w3.org/2000/svg">
  <path d="M28.3333 5.66667H25.5V2.83333H22.6667V5.66667H11.3333V2.83333H8.5V5.66667H5.66667C4.01667 5.66667 2.83333 6.85 2.83333 8.5V28.3333C2.83333 29.9833 4.01667 31.1667 5.66667 31.1667H28.3333C29.9833 31.1667 31.1667 29.9833 31.1667 28.3333V8.5C31.1667 6.85 29.9833 5.66667 28.3333 5.66667ZM28.3333 28.3333H5.66667V14.1667H28.3333V28.3333ZM28.3333 11.3333H5.66667V8.5H28.3333V11.3333Z" fill="#C34141"/>
  <path d="M17 19.8333C18.5833 19.8333 19.8333 18.5833 19.8333 17C19.8333 15.4167 18.5833 14.1667 17 14.1667C15.4167 14.1667 14.1667 15.4167 14.1667 17C14.1667 18.5833 15.4167 19.8333 17 19.8333Z" fill="#E01600"/>
</svg>
