<svg width="25" height="25" viewBox="0 0 25 25" fill="none" xmlns="http://www.w3.org/2000/svg">
<path d="M12.25 7.25V17.25M7.25 12.25H17.25M7 23.5H17.5C19.6002 23.5 20.6503 23.5 21.4525 23.0913C22.1581 22.7317 22.7317 22.1581 23.0913 21.4525C23.5 20.6503 23.5 19.6002 23.5 17.5V7C23.5 4.8998 23.5 3.8497 23.0913 3.04754C22.7317 2.34193 22.1581 1.76825 21.4525 1.40873C20.6503 1 19.6002 1 17.5 1H7C4.8998 1 3.8497 1 3.04754 1.40873C2.34193 1.76825 1.76825 2.34193 1.40873 3.04754C1 3.8497 1 4.8998 1 7V17.5C1 19.6002 1 20.6503 1.40873 21.4525C1.76825 22.1581 2.34193 22.7317 3.04754 23.0913C3.8497 23.5 4.8998 23.5 7 23.5Z" stroke="#4D40CA" stroke-width="2" stroke-linecap="round" stroke-linejoin="round"/>
</svg>
