<svg width="19" height="14" viewBox="0 0 19 14" fill="none" xmlns="http://www.w3.org/2000/svg">
<path d="M11 4.33333H8.91667C8.22631 4.33333 7.66667 4.89298 7.66667 5.58333C7.66667 6.27369 8.22631 6.83333 8.91667 6.83333H9.75C10.4404 6.83333 11 7.39298 11 8.08333C11 8.77369 10.4404 9.33333 9.75 9.33333H7.66667M9.33333 3.5V4.33333M9.33333 9.33333V10.1667M14.3333 6.83333H14.3417M4.33333 6.83333H4.34167M1 3.66667L1 10C1 10.9334 1 11.4001 1.18166 11.7566C1.34144 12.0703 1.59641 12.3252 1.91002 12.485C2.26654 12.6667 2.73325 12.6667 3.66667 12.6667L15 12.6667C15.9334 12.6667 16.4001 12.6667 16.7567 12.485C17.0703 12.3252 17.3252 12.0703 17.485 11.7567C17.6667 11.4001 17.6667 10.9334 17.6667 10V3.66667C17.6667 2.73325 17.6667 2.26654 17.485 1.91002C17.3252 1.59641 17.0703 1.34145 16.7567 1.18166C16.4001 1 15.9334 1 15 1L3.66667 1C2.73325 1 2.26654 1 1.91002 1.18166C1.59641 1.34144 1.34144 1.59641 1.18166 1.91002C1 2.26654 1 2.73325 1 3.66667ZM14.75 6.83333C14.75 7.06345 14.5635 7.25 14.3333 7.25C14.1032 7.25 13.9167 7.06345 13.9167 6.83333C13.9167 6.60321 14.1032 6.41667 14.3333 6.41667C14.5635 6.41667 14.75 6.60321 14.75 6.83333ZM4.75 6.83333C4.75 7.06345 4.56345 7.25 4.33333 7.25C4.10321 7.25 3.91667 7.06345 3.91667 6.83333C3.91667 6.60321 4.10321 6.41667 4.33333 6.41667C4.56345 6.41667 4.75 6.60321 4.75 6.83333Z" stroke="black" stroke-opacity="0.7" stroke-width="2" stroke-linecap="round" stroke-linejoin="round"/>
</svg>
