<svg width="21" height="21" viewBox="0 0 21 21" fill="none" xmlns="http://www.w3.org/2000/svg">
<path d="M7.56048 19.5C8.26561 20.1224 9.19186 20.5 10.2063 20.5C11.2208 20.5 12.147 20.1224 12.8521 19.5M0.500194 4.31989C0.485847 2.86854 1.26833 1.51325 2.53241 0.799997M19.9084 4.3199C19.9228 2.86855 19.1403 1.51325 17.8762 0.800003M16.2063 6.5C16.2063 4.9087 15.5742 3.38258 14.4489 2.25736C13.3237 1.13214 11.7976 0.5 10.2063 0.5C8.615 0.5 7.08888 1.13214 5.96366 2.25736C4.83844 3.38258 4.2063 4.9087 4.2063 6.5C4.2063 9.59018 3.42677 11.706 2.55597 13.1054C1.82143 14.2859 1.45416 14.8761 1.46763 15.0408C1.48254 15.2231 1.52116 15.2926 1.66808 15.4016C1.80076 15.5 2.39889 15.5 3.59516 15.5H16.8174C18.0137 15.5 18.6118 15.5 18.7445 15.4016C18.8914 15.2926 18.9301 15.2231 18.945 15.0408C18.9584 14.8761 18.5912 14.2859 17.8566 13.1054C16.9858 11.706 16.2063 9.59019 16.2063 6.5Z" stroke="black" stroke-linecap="round" stroke-linejoin="round"/>
</svg>
