<svg width="28" height="34" viewBox="0 0 28 34" fill="none" xmlns="http://www.w3.org/2000/svg">
<path d="M16.9167 15.375H7.66667M10.75 21.5417H7.66667M20 9.20833H7.66667M26.1667 8.9V24.9333C26.1667 27.5236 26.1667 28.8187 25.6626 29.808C25.2192 30.6783 24.5116 31.3858 23.6414 31.8292C22.652 32.3333 21.3569 32.3333 18.7667 32.3333H8.9C6.30976 32.3333 5.01464 32.3333 4.02529 31.8292C3.15504 31.3858 2.44751 30.6783 2.00409 29.808C1.5 28.8187 1.5 27.5236 1.5 24.9333V8.9C1.5 6.30976 1.5 5.01464 2.00409 4.02529C2.44751 3.15504 3.15504 2.44751 4.02529 2.00409C5.01464 1.5 6.30976 1.5 8.9 1.5H18.7667C21.3569 1.5 22.652 1.5 23.6414 2.00409C24.5116 2.44751 25.2192 3.15504 25.6626 4.02529C26.1667 5.01464 26.1667 6.30976 26.1667 8.9Z" stroke="black" stroke-width="3" stroke-linecap="round" stroke-linejoin="round"/>
</svg>
