<svg width="22" height="20" viewBox="0 0 22 20" fill="none" xmlns="http://www.w3.org/2000/svg">
<path d="M7 19.0001V5.00012C7 4.07015 7 3.60516 7.10222 3.22366C7.37962 2.18839 8.18827 1.37975 9.22354 1.10234C9.60504 1.00012 10.07 1.00012 11 1.00012C11.93 1.00012 12.395 1.00012 12.7765 1.10234C13.8117 1.37975 14.6204 2.18839 14.8978 3.22366C15 3.60516 15 4.07015 15 5.00012V19.0001M4.2 19.0001H17.8C18.9201 19.0001 19.4802 19.0001 19.908 18.7821C20.2843 18.5904 20.5903 18.2844 20.782 17.9081C21 17.4803 21 16.9202 21 15.8001V8.20012C21 7.08002 21 6.51996 20.782 6.09214C20.5903 5.71582 20.2843 5.40986 19.908 5.21811C19.4802 5.00012 18.9201 5.00012 17.8 5.00012H4.2C3.07989 5.00012 2.51984 5.00012 2.09202 5.21811C1.71569 5.40986 1.40973 5.71582 1.21799 6.09214C1 6.51996 1 7.08002 1 8.20012V15.8001C1 16.9202 1 17.4803 1.21799 17.9081C1.40973 18.2844 1.71569 18.5904 2.09202 18.7821C2.51984 19.0001 3.0799 19.0001 4.2 19.0001Z" stroke="black" stroke-width="2" stroke-linecap="round" stroke-linejoin="round"/>
</svg>
