<svg width="19" height="19" viewBox="0 0 19 19" fill="none" xmlns="http://www.w3.org/2000/svg">
<path d="M10.6079 6.29321C10.1309 6.63329 9.54714 6.83333 8.91667 6.83333C7.30584 6.83333 6 5.5275 6 3.91667C6 2.30584 7.30584 1 8.91667 1C9.96082 1 10.8768 1.54868 11.3921 2.37345M4.33333 16.0726H6.50858C6.79219 16.0726 7.07407 16.1064 7.34901 16.1739L9.64741 16.7324C10.1461 16.8539 10.6656 16.8657 11.1696 16.7678L13.7108 16.2734C14.3821 16.1427 14.9997 15.8212 15.4836 15.3504L17.2816 13.6014C17.795 13.1028 17.795 12.2937 17.2816 11.7942C16.8193 11.3445 16.0873 11.2939 15.5643 11.6753L13.4688 13.204C13.1687 13.4234 12.8036 13.5415 12.428 13.5415H10.4046L11.6926 13.5415C12.4185 13.5415 13.0065 12.9694 13.0065 12.2633V12.0076C13.0065 11.4212 12.5963 10.91 12.0117 10.7682L10.0238 10.2848C9.70032 10.2063 9.369 10.1667 9.03595 10.1667C8.23194 10.1667 6.77658 10.8323 6.77658 10.8323L4.33333 11.8541M16 4.75C16 6.36083 14.6942 7.66667 13.0833 7.66667C11.4725 7.66667 10.1667 6.36083 10.1667 4.75C10.1667 3.13917 11.4725 1.83333 13.0833 1.83333C14.6942 1.83333 16 3.13917 16 4.75ZM1 11.5L1 16.3333C1 16.8 1 17.0334 1.09083 17.2117C1.17072 17.3685 1.29821 17.4959 1.45501 17.5758C1.63327 17.6667 1.86662 17.6667 2.33333 17.6667H3C3.46671 17.6667 3.70007 17.6667 3.87833 17.5758C4.03513 17.4959 4.16261 17.3685 4.24251 17.2117C4.33333 17.0334 4.33333 16.8 4.33333 16.3333V11.5C4.33333 11.0333 4.33333 10.7999 4.24251 10.6217C4.16261 10.4649 4.03513 10.3374 3.87833 10.2575C3.70007 10.1667 3.46671 10.1667 3 10.1667L2.33333 10.1667C1.86662 10.1667 1.63327 10.1667 1.45501 10.2575C1.29821 10.3374 1.17072 10.4649 1.09083 10.6217C1 10.7999 1 11.0333 1 11.5Z" stroke="black" stroke-opacity="0.7" stroke-width="2" stroke-linecap="round" stroke-linejoin="round"/>
</svg>
