<svg width="17" height="18" viewBox="0 0 17 18" fill="none" xmlns="http://www.w3.org/2000/svg">
<path d="M11.8333 5.52663V2.61051C11.8333 1.91739 11.8333 1.57084 11.6873 1.35786C11.5598 1.17178 11.3622 1.04538 11.1398 1.00753C10.8852 0.964213 10.5706 1.10944 9.94125 1.3999L2.54918 4.81162C1.98792 5.07067 1.70729 5.20019 1.50175 5.40106C1.32005 5.57865 1.18135 5.79542 1.09625 6.03482C1 6.30562 1 6.6147 1 7.23285V11.36M12.25 10.9433H12.2583M1 8.1933L1 13.6933C1 14.6267 1 15.0934 1.18166 15.4499C1.34144 15.7635 1.59641 16.0185 1.91002 16.1783C2.26654 16.36 2.73325 16.36 3.66667 16.36H13.3333C14.2668 16.36 14.7335 16.36 15.09 16.1783C15.4036 16.0185 15.6586 15.7636 15.8183 15.4499C16 15.0934 16 14.6267 16 13.6933V8.1933C16 7.25988 16 6.79317 15.8183 6.43665C15.6586 6.12304 15.4036 5.86808 15.09 5.70829C14.7335 5.52663 14.2668 5.52663 13.3333 5.52663L3.66667 5.52663C2.73325 5.52663 2.26654 5.52663 1.91002 5.70829C1.59641 5.86808 1.34144 6.12304 1.18166 6.43665C1 6.79317 1 7.25988 1 8.1933ZM12.6667 10.9433C12.6667 11.1734 12.4801 11.36 12.25 11.36C12.0199 11.36 11.8333 11.1734 11.8333 10.9433C11.8333 10.7132 12.0199 10.5266 12.25 10.5266C12.4801 10.5266 12.6667 10.7132 12.6667 10.9433Z" stroke="black" stroke-opacity="0.7" stroke-width="2" stroke-linecap="round" stroke-linejoin="round"/>
</svg>
