<svg width="20" height="21" viewBox="0 0 20 21" fill="none" xmlns="http://www.w3.org/2000/svg">
<path d="M10.0002 14.7331C11.6571 14.7331 13.0002 13.39 13.0002 11.7331C13.0002 10.0763 11.6571 8.73314 10.0002 8.73314C8.34339 8.73314 7.00024 10.0763 7.00024 11.7331C7.00024 13.39 8.34339 14.7331 10.0002 14.7331Z" stroke="black" stroke-width="2" stroke-linecap="round" stroke-linejoin="round"/>
<path d="M1.00024 9.29821C1.00024 8.72385 1.00024 8.43667 1.07427 8.17221C1.13985 7.93794 1.24761 7.7176 1.39227 7.52201C1.55558 7.30121 1.78227 7.1249 2.23563 6.77228L9.01794 1.49715C9.36926 1.2239 9.54493 1.08727 9.7389 1.03476C9.91005 0.988415 10.0904 0.988415 10.2616 1.03476C10.4556 1.08727 10.6312 1.2239 10.9825 1.49715L17.7649 6.77228C18.2182 7.1249 18.4449 7.30121 18.6082 7.52201C18.7529 7.7176 18.8606 7.93794 18.9262 8.17221C19.0002 8.43667 19.0002 8.72385 19.0002 9.29821V16.5331C19.0002 17.6532 19.0002 18.2133 18.7823 18.6411C18.5905 19.0174 18.2846 19.3234 17.9082 19.5152C17.4804 19.7331 16.9203 19.7331 15.8002 19.7331H4.20024C3.08014 19.7331 2.52009 19.7331 2.09226 19.5152C1.71594 19.3234 1.40998 19.0174 1.21823 18.6411C1.00024 18.2133 1.00024 17.6532 1.00024 16.5331V9.29821Z" stroke="black" stroke-width="2" stroke-linecap="round" stroke-linejoin="round"/>
</svg>
