<svg width="22" height="22" viewBox="0 0 22 22" fill="none" xmlns="http://www.w3.org/2000/svg">
<path d="M16.4889 1.75585C17.4536 0.759374 19.0476 0.746483 20.0284 1.72723C20.9823 2.68111 21 4.22208 20.0684 5.19768L17.2897 8.10744C17.0719 8.33552 16.963 8.44955 16.8959 8.58311C16.8365 8.70135 16.8012 8.83019 16.7919 8.96219C16.7815 9.1113 16.8169 9.26494 16.8878 9.57222L18.6157 17.0598C18.6885 17.3752 18.7249 17.5329 18.7132 17.6854C18.7028 17.8205 18.6651 17.952 18.6023 18.072C18.5314 18.2076 18.417 18.322 18.1881 18.5509L17.8173 18.9217C17.2112 19.5278 16.9081 19.8309 16.5979 19.8858C16.327 19.9337 16.0484 19.8679 15.8276 19.7039C15.5747 19.5161 15.4391 19.1095 15.168 18.2963L13.1583 12.267L9.81296 15.6123C9.61328 15.812 9.51343 15.9119 9.44664 16.0294C9.38748 16.1336 9.34751 16.2475 9.32864 16.3658C9.30734 16.4994 9.32293 16.6397 9.35412 16.9204L9.53783 18.5738C9.56901 18.8544 9.58461 18.9948 9.56331 19.1283C9.54444 19.2466 9.50447 19.3606 9.4453 19.4647C9.37851 19.5823 9.27867 19.6821 9.07899 19.8818L8.88148 20.0793C8.40842 20.5524 8.17189 20.7889 7.90904 20.8574C7.6785 20.9175 7.43407 20.8933 7.21979 20.7892C6.97548 20.6705 6.78993 20.3921 6.41883 19.8355L4.85051 17.483C4.78421 17.3836 4.75106 17.3338 4.71257 17.2887C4.67838 17.2487 4.64108 17.2114 4.60102 17.1772C4.55592 17.1387 4.5062 17.1055 4.40675 17.0392L2.05426 15.4709C1.49762 15.0998 1.21929 14.9143 1.10057 14.67C0.996442 14.4557 0.97224 14.2113 1.03232 13.9807C1.10082 13.7179 1.33735 13.4813 1.81041 13.0083L2.00792 12.8108C2.2076 12.6111 2.30745 12.5112 2.42503 12.4444C2.52919 12.3853 2.64314 12.3453 2.76144 12.3264C2.89497 12.3051 3.03531 12.3207 3.31598 12.3519L4.96937 12.5356C5.25004 12.5668 5.39037 12.5824 5.52391 12.5611C5.64221 12.5422 5.75616 12.5023 5.86032 12.4431C5.9779 12.3763 6.07774 12.2765 6.27743 12.0768L9.62275 8.73147L3.59347 6.72171C2.78024 6.45063 2.37363 6.31509 2.18584 6.06219C2.02185 5.84135 1.95608 5.56271 2.00398 5.29185C2.05885 4.98166 2.36192 4.67859 2.96807 4.07244L3.33884 3.70167C3.56773 3.47278 3.68218 3.35833 3.81777 3.28744C3.93778 3.2247 4.06928 3.18698 4.20431 3.17659C4.35686 3.16484 4.51457 3.20123 4.82998 3.27402L12.2891 4.99536C12.5991 5.06689 12.754 5.10265 12.9037 5.09201C13.0481 5.08174 13.1886 5.04021 13.3155 4.97029C13.4469 4.89788 13.5575 4.78361 13.7787 4.55507L16.4889 1.75585Z" stroke="black" stroke-width="2" stroke-linecap="round" stroke-linejoin="round"/>
</svg>
