<svg width="17" height="18" viewBox="0 0 17 18" fill="none" xmlns="http://www.w3.org/2000/svg">
<path d="M4.33333 9.33333H8.5V13.5M1.00833 9.33333H1M5.175 13.5H5.16667M8.50833 16.8333H8.5M16.0083 9.33333H16M1 13.5H2.25M11.4167 9.33333H13.0833M1 16.8333H5.16667M8.5 1V6M13.1667 16.8333H14.6667C15.1334 16.8333 15.3667 16.8333 15.545 16.7425C15.7018 16.6626 15.8293 16.5351 15.9092 16.3783C16 16.2001 16 15.9667 16 15.5V14C16 13.5333 16 13.2999 15.9092 13.1217C15.8293 12.9649 15.7018 12.8374 15.545 12.7575C15.3667 12.6667 15.1334 12.6667 14.6667 12.6667H13.1667C12.7 12.6667 12.4666 12.6667 12.2883 12.7575C12.1315 12.8374 12.0041 12.9649 11.9242 13.1217C11.8333 13.2999 11.8333 13.5333 11.8333 14V15.5C11.8333 15.9667 11.8333 16.2001 11.9242 16.3783C12.0041 16.5351 12.1315 16.6626 12.2883 16.7425C12.4666 16.8333 12.7 16.8333 13.1667 16.8333ZM13.1667 6H14.6667C15.1334 6 15.3667 6 15.545 5.90917C15.7018 5.82928 15.8293 5.70179 15.9092 5.54499C16 5.36673 16 5.13338 16 4.66667V3.16667C16 2.69996 16 2.4666 15.9092 2.28834C15.8293 2.13154 15.7018 2.00406 15.545 1.92416C15.3667 1.83333 15.1334 1.83333 14.6667 1.83333H13.1667C12.7 1.83333 12.4666 1.83333 12.2883 1.92416C12.1315 2.00406 12.0041 2.13154 11.9242 2.28834C11.8333 2.4666 11.8333 2.69996 11.8333 3.16667V4.66667C11.8333 5.13338 11.8333 5.36673 11.9242 5.54499C12.0041 5.70179 12.1315 5.82928 12.2883 5.90917C12.4666 6 12.7 6 13.1667 6ZM2.33333 6H3.83333C4.30004 6 4.5334 6 4.71166 5.90917C4.86846 5.82928 4.99594 5.70179 5.07584 5.54499C5.16667 5.36673 5.16667 5.13338 5.16667 4.66667V3.16667C5.16667 2.69996 5.16667 2.4666 5.07584 2.28834C4.99594 2.13154 4.86846 2.00406 4.71166 1.92416C4.5334 1.83333 4.30004 1.83333 3.83333 1.83333H2.33333C1.86662 1.83333 1.63327 1.83333 1.45501 1.92416C1.29821 2.00406 1.17072 2.13154 1.09083 2.28834C1 2.4666 1 2.69996 1 3.16667V4.66667C1 5.13338 1 5.36673 1.09083 5.54499C1.17072 5.70179 1.29821 5.82928 1.45501 5.90917C1.63327 6 1.86662 6 2.33333 6Z" stroke="black" stroke-opacity="0.75" stroke-width="2" stroke-linecap="round" stroke-linejoin="round"/>
</svg>
