<svg width="31" height="34" viewBox="0 0 31 34" fill="none" xmlns="http://www.w3.org/2000/svg">
<path d="M11.2898 28.2805L12.1908 30.3069C12.4586 30.9101 12.8958 31.4226 13.4491 31.7823C14.0025 32.142 14.6484 32.3334 15.3084 32.3333C15.9684 32.3334 16.6142 32.142 17.1676 31.7823C17.721 31.4226 18.1581 30.9101 18.426 30.3069L19.327 28.2805C19.6477 27.5614 20.1872 26.962 20.8687 26.5675C21.5544 26.172 22.3476 26.0035 23.1349 26.0862L25.3395 26.3208C25.9957 26.3902 26.658 26.2678 27.2461 25.9683C27.8341 25.6688 28.3226 25.2052 28.6524 24.6336C28.9826 24.0623 29.1399 23.4075 29.1052 22.7486C29.0705 22.0897 28.8454 21.455 28.4571 20.9216L27.1518 19.1281C26.687 18.4847 26.4387 17.7103 26.4426 16.9167C26.4425 16.1252 26.6932 15.354 27.1587 14.7138L28.4639 12.9203C28.8522 12.3869 29.0774 11.7522 29.1121 11.0933C29.1467 10.4344 28.9894 9.77958 28.6592 9.20833C28.3294 8.63674 27.8409 8.17309 27.2529 7.8736C26.6649 7.57411 26.0026 7.45165 25.3463 7.52107L23.1418 7.75574C22.3545 7.83842 21.5612 7.66994 20.8755 7.2744C20.1927 6.87772 19.6531 6.27509 19.3338 5.55287L18.426 3.52644C18.1581 2.92322 17.721 2.41069 17.1676 2.05099C16.6142 1.69129 15.9684 1.49989 15.3084 1.5C14.6484 1.49989 14.0025 1.69129 13.4491 2.05099C12.8958 2.41069 12.4586 2.92322 12.1908 3.52644L11.2898 5.55287C10.9705 6.27509 10.4309 6.87772 9.7481 7.2744C9.06239 7.66994 8.26913 7.83842 7.48185 7.75574L5.27042 7.52107C4.61418 7.45165 3.95189 7.57411 3.36386 7.8736C2.77583 8.17309 2.28732 8.63674 1.95755 9.20833C1.62735 9.77958 1.47005 10.4344 1.50471 11.0933C1.53937 11.7522 1.76452 12.3869 2.15282 12.9203L3.4581 14.7138C3.92359 15.354 4.17426 16.1252 4.17412 16.9167C4.17426 17.7082 3.92359 18.4794 3.4581 19.1195L2.15282 20.913C1.76452 21.4465 1.53937 22.0811 1.50471 22.74C1.47005 23.399 1.62735 24.0538 1.95755 24.625C2.28764 25.1963 2.77622 25.6597 3.36416 25.9591C3.9521 26.2586 4.61422 26.3812 5.27042 26.3123L7.475 26.0776C8.26228 25.9949 9.05554 26.1634 9.74125 26.5589C10.4266 26.9545 10.9687 27.5572 11.2898 28.2805Z" stroke="black" stroke-width="3" stroke-linecap="round" stroke-linejoin="round"/>
<path d="M15.3056 21.5417C17.8599 21.5417 19.9306 19.471 19.9306 16.9167C19.9306 14.3624 17.8599 12.2917 15.3056 12.2917C12.7513 12.2917 10.6806 14.3624 10.6806 16.9167C10.6806 19.471 12.7513 21.5417 15.3056 21.5417Z" stroke="black" stroke-width="3" stroke-linecap="round" stroke-linejoin="round"/>
</svg>
