<svg width="32" height="32" viewBox="0 0 32 32" fill="none" xmlns="http://www.w3.org/2000/svg">
<path d="M5.3752 18.5H24.5315C26.0085 18.5 26.747 18.5 27.3349 18.2246C27.8529 17.982 28.288 17.5925 28.5863 17.1046C28.9249 16.5507 29.0065 15.8167 29.1696 14.3487L30.0227 6.6705C30.0725 6.22212 30.0975 5.99793 30.0254 5.8244C29.962 5.672 29.8489 5.54558 29.7044 5.46582C29.5399 5.375 29.3143 5.375 28.8632 5.375H4.64604M1 1H2.82064C3.20655 1 3.3995 1 3.55046 1.07339C3.68336 1.138 3.79349 1.24146 3.86626 1.37007C3.94893 1.51616 3.96096 1.70874 3.98504 2.09389L5.30663 23.2394C5.3307 23.6246 5.34274 23.8172 5.4254 23.9633C5.49818 24.0919 5.60831 24.1953 5.74121 24.2599C5.89216 24.3333 6.08512 24.3333 6.47103 24.3333H25.7917M9.02083 29.4375H9.03542M22.1458 29.4375H22.1604M9.75 29.4375C9.75 29.8402 9.42354 30.1667 9.02083 30.1667C8.61813 30.1667 8.29167 29.8402 8.29167 29.4375C8.29167 29.0348 8.61813 28.7083 9.02083 28.7083C9.42354 28.7083 9.75 29.0348 9.75 29.4375ZM22.875 29.4375C22.875 29.8402 22.5485 30.1667 22.1458 30.1667C21.7431 30.1667 21.4167 29.8402 21.4167 29.4375C21.4167 29.0348 21.7431 28.7083 22.1458 28.7083C22.5485 28.7083 22.875 29.0348 22.875 29.4375Z" stroke="black" stroke-width="2" stroke-linecap="round" stroke-linejoin="round"/>
</svg>
