<svg width="34" height="33" viewBox="0 0 34 33" fill="none" xmlns="http://www.w3.org/2000/svg">
<path d="M8.43771 24.625H25.1328C26.5973 24.625 27.3295 24.625 27.9263 24.3604C28.4525 24.1272 28.9029 23.7513 29.2265 23.2754C29.5935 22.7355 29.7245 22.0151 29.9865 20.5742L32.069 9.12063C32.1598 8.62123 32.2052 8.37153 32.135 8.17656C32.0735 8.0055 31.9535 7.8617 31.7962 7.77055C31.6169 7.66667 31.3631 7.66667 30.8555 7.66667H6.12521M1.5 1.5H3.52946C3.9036 1.5 4.09067 1.5 4.24197 1.56834C4.37532 1.62857 4.48878 1.72552 4.56907 1.84784C4.66017 1.98663 4.68935 2.17141 4.7477 2.54098L9.04397 29.7507C9.10232 30.1203 9.1315 30.305 9.2226 30.4438C9.30289 30.5661 9.41634 30.6631 9.5497 30.7233C9.70099 30.7917 9.88806 30.7917 10.2622 30.7917H27.7083" stroke="black" stroke-width="3" stroke-linecap="round" stroke-linejoin="round"/>
</svg>
